<?xml version="1.0" standalone="no"?>
<!DOCTYPE svg PUBLIC "-//W3C//DTD SVG 20010904//EN"
 "http://www.w3.org/TR/2001/REC-SVG-20010904/DTD/svg10.dtd">
<svg version="1.0" xmlns="http://www.w3.org/2000/svg"
 width="1200.000000pt" height="1000.000000pt" viewBox="0 0 1200.000000 1000.000000"
 preserveAspectRatio="xMidYMid meet">

<g transform="translate(0.000000,1000.000000) scale(0.100000,-0.100000)"
fill="#000000" stroke="none">
<path d="M1663 9808 c-39 -62 -132 -214 -207 -338 -76 -124 -149 -242 -162
-262 -13 -20 -73 -117 -133 -215 -60 -98 -193 -315 -296 -483 -103 -168 -214
-349 -247 -402 l-59 -97 107 -173 c59 -95 135 -218 169 -273 34 -55 110 -179
170 -275 146 -237 186 -300 192 -300 6 0 -3 15 -235 398 -28 48 -64 109 -80
136 -15 26 -49 83 -76 125 -27 42 -39 67 -27 57 11 -10 32 -39 46 -62 14 -24
33 -44 41 -44 8 0 22 17 30 37 15 35 29 53 97 124 15 17 27 38 27 47 0 10 25
44 55 77 31 32 58 70 62 84 3 14 16 37 29 51 81 89 94 106 94 121 0 15 22 43
98 126 12 13 22 32 22 41 0 16 21 43 96 123 13 14 24 33 24 41 0 15 31 56 93
120 15 16 27 37 27 48 0 11 15 34 33 53 58 60 87 99 87 115 0 8 11 27 24 41
75 80 96 107 96 123 0 9 12 30 28 46 52 55 92 107 92 122 0 14 13 31 94 120
13 14 26 36 29 50 3 14 31 52 62 84 30 33 55 67 55 77 0 10 12 31 28 48 67 71
81 89 95 122 7 19 37 58 65 88 29 30 52 63 52 72 0 10 16 35 35 56 19 21 35
41 35 45 0 4 190 9 423 11 232 1 52 3 -399 5 l-821 2 -70 -112z"/>
<path d="M1243 6905 c8 -16 75 -127 147 -245 73 -118 180 -293 238 -387 l105
-173 1016 2 c962 2 983 2 389 7 -344 4 -629 9 -632 12 -3 3 10 20 29 37 19 18
38 45 41 60 4 15 17 38 30 52 81 89 94 106 94 121 0 16 30 56 93 121 15 16 27
37 27 46 0 10 12 31 28 48 73 83 92 107 92 119 0 14 37 61 83 107 l29 28 281
3 c155 1 -163 4 -708 6 -544 2 -1071 5 -1170 7 l-180 3 -23 28 -24 28 15 -30z"/>
<path d="M8352 6808 c-22 -35 -101 -164 -177 -288 -75 -124 -147 -241 -160
-261 -13 -20 -98 -157 -188 -305 -90 -148 -199 -324 -240 -391 l-76 -123 827
2 c553 2 664 4 335 5 -492 3 -493 3 -473 23 11 11 20 28 20 38 0 10 23 43 52
73 28 30 58 70 66 89 8 19 22 43 32 55 10 11 34 38 54 60 20 21 36 47 36 57 0
9 14 32 31 50 17 18 44 47 60 64 16 17 29 41 29 52 0 11 8 27 18 34 10 7 29
29 42 48 13 19 32 41 42 48 10 7 18 22 18 32 0 11 12 33 28 49 71 77 92 104
92 120 0 9 15 33 33 52 62 69 87 101 87 114 0 13 25 45 88 114 17 19 32 43 32
53 0 9 12 30 28 46 63 67 92 105 92 123 0 18 17 19 483 22 278 1 112 3 -394 5
l-877 2 -40 -62z"/>
<path d="M3631 6812 c13 -24 30 -49 38 -55 18 -14 -10 36 -41 74 -16 20 -16
17 3 -19z"/>
<path d="M1203 6778 c-22 -36 -60 -98 -278 -453 -81 -132 -197 -321 -258 -420
-61 -99 -138 -225 -172 -280 -34 -55 -111 -181 -172 -280 -61 -99 -134 -218
-162 -263 -29 -46 -51 -86 -49 -88 2 -2 64 19 138 47 266 99 926 310 1125 360
27 7 45 14 39 16 -5 2 -116 -28 -247 -65 -232 -67 -237 -68 -221 -43 9 14 30
38 45 53 16 15 29 36 29 47 0 18 20 44 93 122 15 16 27 37 27 46 0 10 9 26 19
38 75 78 101 112 101 129 0 10 11 31 24 45 74 79 96 107 96 121 0 15 29 53 90
116 17 17 30 40 30 51 0 25 59 85 77 79 6 -3 0 16 -14 42 -38 70 -8 36 61 -70
l61 -93 320 0 320 0 -315 3 -315 3 -155 255 c-226 372 -306 504 -312 510 -3 3
-14 -10 -25 -28z m292 -444 c9 -15 12 -23 6 -20 -11 7 -35 46 -28 46 3 0 12
-12 22 -26z m33 -59 c-3 -3 -9 2 -12 12 -6 14 -5 15 5 6 7 -7 10 -15 7 -18z"/>
<path d="M3749 6625 c5 -11 17 -29 26 -40 l16 -20 -10 20 c-5 11 -17 29 -26
40 l-16 20 10 -20z"/>
<path d="M1553 5453 c9 -2 25 -2 35 0 9 3 1 5 -18 5 -19 0 -27 -2 -17 -5z"/>
<path d="M1638 5453 c12 -2 32 -2 45 0 12 2 2 4 -23 4 -25 0 -35 -2 -22 -4z"/>
<path d="M1465 5435 c-39 -14 -40 -14 -5 -8 41 7 82 22 60 22 -8 0 -33 -7 -55
-14z"/>
<path d="M1803 5443 c43 -2 110 -2 150 0 40 1 5 3 -78 3 -82 0 -115 -2 -72 -3z"/>
<path d="M3550 5299 c-200 -29 -300 -136 -300 -319 0 -233 163 -344 480 -327
267 15 383 114 383 327 0 191 -95 290 -307 319 -87 12 -175 12 -256 0z m243
-49 c91 -13 159 -44 201 -90 41 -46 56 -93 56 -180 0 -96 -15 -138 -69 -192
-66 -66 -127 -83 -301 -83 -154 0 -223 17 -284 67 -63 51 -81 99 -81 208 0
102 16 150 67 197 71 67 243 97 411 73z"/>
<path d="M2251 5293 c0 -5 94 -91 209 -193 l209 -185 1 -127 0 -128 35 0 35 0
1 128 1 127 208 185 c115 102 209 188 209 193 1 4 -14 7 -33 7 -30 0 -57 -21
-224 -170 -105 -93 -193 -170 -196 -170 -3 0 -91 77 -196 170 -169 150 -196
170 -226 170 -19 0 -34 -3 -33 -7z"/>
<path d="M4324 5286 c-3 -8 -4 -106 -2 -218 4 -232 12 -263 86 -330 66 -59
156 -83 322 -83 206 0 303 41 359 150 25 48 26 56 29 273 l4 223 -31 -3 -30
-3 -4 -215 c-4 -233 -8 -254 -59 -307 -50 -52 -112 -68 -263 -68 -146 0 -222
17 -275 61 -61 52 -65 68 -70 309 l-5 220 -28 3 c-17 2 -29 -2 -33 -12z"/>
<path d="M6207 5268 c-51 -68 -427 -599 -427 -604 0 -2 15 -4 34 -4 33 0 39 8
236 285 111 157 205 285 208 284 6 0 351 -491 360 -511 2 -4 -123 -9 -279 -10
-280 -3 -282 -3 -297 -25 l-14 -23 351 0 c193 0 351 2 351 5 0 9 -433 619
-444 627 -24 17 -56 7 -79 -24z"/>
<path d="M6942 5277 l-24 -25 294 -4 c273 -3 296 -5 338 -24 65 -31 92 -64 97
-121 5 -64 -21 -107 -85 -136 -44 -21 -63 -22 -344 -25 l-298 -3 0 -140 0
-139 30 0 30 0 0 115 0 115 259 0 c232 0 266 2 322 20 72 23 98 41 128 91 43
70 19 191 -48 238 -70 50 -99 55 -396 59 l-280 4 -23 -25z"/>
<path d="M7952 5277 l-24 -25 289 -5 c315 -4 343 -8 400 -61 30 -27 36 -41 40
-82 5 -65 -21 -108 -85 -137 -44 -21 -63 -22 -344 -25 l-298 -3 0 -140 0 -139
30 0 30 0 0 114 0 115 278 3 c303 4 336 10 395 66 42 40 57 75 57 134 0 85
-49 149 -142 185 -35 14 -92 18 -323 21 l-280 4 -23 -25z"/>
<path d="M9103 5289 c-104 -20 -151 -65 -159 -152 -7 -69 16 -114 76 -147 44
-24 52 -25 300 -31 293 -6 320 -12 346 -75 31 -74 -7 -142 -91 -163 -27 -7
-155 -11 -338 -11 l-294 0 -24 -26 -24 -25 350 3 c346 3 351 3 398 27 27 13
57 37 68 55 50 82 26 186 -53 228 -41 21 -57 23 -298 28 -274 7 -310 13 -344
61 -23 33 -20 91 5 123 46 58 58 60 374 64 246 3 293 6 308 19 9 9 17 20 17
25 0 10 -561 9 -617 -3z"/>
<path d="M155 4851 c74 -123 167 -273 275 -446 51 -82 122 -197 158 -255 106
-173 124 -200 128 -200 6 0 -25 59 -47 91 -10 14 -40 64 -67 110 -27 46 -88
148 -136 227 l-86 142 20 22 c11 12 20 30 20 40 0 9 12 30 28 46 76 80 104
124 85 135 -13 6 10 -1 242 -74 121 -38 224 -69 230 -69 5 0 -156 56 -360 124
-203 68 -409 140 -456 159 l-87 34 53 -86z m186 -242 c22 -33 39 -62 36 -65
-2 -2 -25 28 -51 67 -26 39 -43 68 -37 64 6 -3 29 -33 52 -66z"/>
<path d="M1035 4610 c11 -5 27 -9 35 -9 9 0 8 4 -5 9 -11 5 -27 9 -35 9 -9 0
-8 -4 5 -9z"/>
<path d="M1128 4583 c7 -3 16 -2 19 1 4 3 -2 6 -13 5 -11 0 -14 -3 -6 -6z"/>
<path d="M1228 4553 c7 -3 16 -2 19 1 4 3 -2 6 -13 5 -11 0 -14 -3 -6 -6z"/>
<path d="M4533 4438 c-14 -24 -50 -81 -78 -128 -29 -47 -70 -114 -92 -150 -62
-100 -323 -524 -443 -720 -59 -96 -142 -231 -184 -299 l-76 -123 59 -97 c32
-53 93 -152 136 -221 43 -69 99 -159 124 -200 41 -68 100 -151 88 -125 -2 6
-40 69 -82 140 -110 182 -155 265 -145 265 5 0 12 -5 16 -11 3 -6 17 7 32 33
30 50 30 50 74 103 34 41 53 69 65 95 7 15 35 50 66 82 10 10 22 29 27 41 12
27 30 55 50 77 41 45 100 125 100 135 0 4 6 13 13 20 42 47 83 104 104 145 4
8 17 26 29 40 53 59 64 74 64 82 0 8 9 20 38 53 6 7 12 18 12 22 0 5 14 22 31
39 17 16 35 38 40 49 10 21 31 57 39 65 24 24 80 101 80 109 0 6 4 11 9 11 5
0 13 10 17 22 3 12 12 27 18 34 46 47 106 128 106 143 0 5 19 30 42 55 38 43
55 67 75 106 4 8 17 26 29 40 55 61 64 74 64 86 0 11 52 14 263 17 144 1 27 3
-260 5 l-523 2 -27 -42z m-723 -1609 c12 -16 20 -32 17 -35 -2 -3 -14 11 -25
31 -26 43 -21 46 8 4z"/>
<path d="M7596 4373 c37 -60 91 -148 121 -198 30 -49 63 -101 74 -115 31 -38
-24 62 -135 245 l-97 160 403 5 403 5 -417 3 -418 2 66 -107z"/>
<path d="M7821 4008 c31 -59 220 -358 225 -358 7 0 -37 81 -81 149 -23 36 -66
103 -95 149 -50 78 -74 108 -49 60z"/>
<path d="M771 3852 c13 -24 30 -49 38 -55 18 -14 -10 36 -41 74 -16 20 -16 17
3 -19z"/>
<path d="M8061 3618 c21 -40 91 -148 95 -148 7 0 -26 60 -64 117 -36 55 -52
70 -31 31z"/>
<path d="M8207 3380 c15 -28 36 -60 46 -73 l18 -22 -12 25 c-15 32 -71 120
-76 120 -2 0 8 -23 24 -50z"/>
<path d="M8329 3185 c5 -11 17 -29 26 -40 l16 -20 -10 20 c-5 11 -17 29 -26
40 l-16 20 10 -20z"/>
</g>
</svg>
